<svg width="60" height="60" viewBox="0 0 60 60" fill="none" xmlns="http://www.w3.org/2000/svg">
<path d="M30 31.3944L10 18.6056V44.2306C10 44.4552 10.0721 44.6396 10.2163 44.7837C10.3604 44.9279 10.5448 45 10.7694 45H33.125V48.75H10.7694C9.50646 48.75 8.4375 48.3125 7.5625 47.4375C6.6875 46.5625 6.25 45.4935 6.25 44.2306V15.7694C6.25 14.5065 6.6875 13.4375 7.5625 12.5625C8.4375 11.6875 9.50646 11.25 10.7694 11.25H49.2306C50.4935 11.25 51.5625 11.6875 52.4375 12.5625C53.3125 13.4375 53.75 14.5065 53.75 15.7694V33.125H50V18.6056L30 31.3944ZM30 27.5L49.6156 15H10.3844L30 27.5ZM47.0194 55.9856L44.4088 53.375L48.9475 48.75H37.6444V45H48.9713L44.3463 40.375L47.0194 37.7644L56.13 46.875L47.0194 55.9856ZM10 18.6056V47.0913V33.125V33.4325V15V18.6056Z" fill="#E3E3E3"/>
</svg>
