<svg width="32" height="32" viewBox="0 0 32 32" fill="none" xmlns="http://www.w3.org/2000/svg">
<path d="M30.5586 29.8957C30.5586 30.264 30.2601 30.5625 29.8918 30.5625H23.6143C22.9189 30.5625 22.6878 29.6313 23.3026 29.3063L29.5802 25.9871C30.0242 25.7523 30.5586 26.0742 30.5586 26.5765V29.8957ZM10.5298 29.5708C10.7749 30.0152 10.4535 30.5596 9.94599 30.5596H1.66677C1.29852 30.5596 1 30.261 1 29.8928V14.8815C1 14.1924 1.91782 13.9561 2.25063 14.5595L10.5298 29.5708ZM16.845 21.7917C17.0219 22.1108 17.4223 22.2285 17.7437 22.0558L29.5782 15.6986C30.0224 15.46 30.5605 15.7817 30.5605 16.286V20.6371C30.5605 20.8844 30.4238 21.1113 30.2051 21.2268L15.4183 29.0358C15.0966 29.2057 14.6983 29.0864 14.5228 28.7678L1.0827 4.36014C1.02845 4.26162 1 4.15098 1 4.03852V1.66677C1 1.29852 1.29852 1 1.66677 1H4.92467C5.16702 1 5.39029 1.1315 5.50781 1.34346L16.845 21.7917ZM30.5596 10.3402C30.5596 10.5875 30.4227 10.8144 30.2041 10.9298L19.1845 16.7465C18.8619 16.9168 18.4623 16.7962 18.2877 16.4759L10.3935 1.98576C10.1514 1.54145 10.473 1 10.979 1H29.8928C30.261 1 30.5596 1.29852 30.5596 1.66677V10.3402Z" fill="url(#paint0_linear_252_59)"/>
<defs>
<linearGradient id="paint0_linear_252_59" x1="-1.10356" y1="0.902686" x2="26.4661" y2="30.5741" gradientUnits="userSpaceOnUse">
<stop stop-color="#ACF459"/>
<stop offset="0.447115" stop-color="#62CCAF"/>
</linearGradient>
</defs>
</svg>
