<svg width="155" height="27" viewBox="0 0 155 27" fill="none" xmlns="http://www.w3.org/2000/svg">
<g clip-path="url(#clip0_788_10909)">
<path d="M23.5577 24.5613C23.5577 24.8548 23.3197 25.0927 23.0263 25.0927H18.0237C17.4695 25.0927 17.2854 24.3506 17.7753 24.0916L22.7779 21.4464C23.1318 21.2593 23.5577 21.5159 23.5577 21.9162V24.5613ZM7.5947 24.3037C7.79002 24.6579 7.53383 25.0918 7.12938 25.0918H0.531387C0.23791 25.0918 0 24.8538 0 24.5604V12.597C0 12.0478 0.731471 11.8595 0.996699 12.3404L7.5947 24.3037ZM12.6276 18.1038C12.7686 18.3581 13.0877 18.4519 13.3438 18.3143L22.7748 13.2477C23.1288 13.0575 23.5577 13.3139 23.5577 13.7158V17.1836C23.5577 17.3806 23.4487 17.5614 23.2744 17.6535L11.4911 23.8772C11.2348 24.0125 10.9173 23.9175 10.7774 23.6636L0.0659067 4.21148C0.0226721 4.13297 0 4.04479 0 3.95516V2.06459C0 1.77111 0.23791 1.5332 0.531387 1.5332H3.12745C3.3206 1.5332 3.49854 1.63801 3.59219 1.80693L12.6276 18.1038ZM23.5577 8.97744C23.5577 9.17454 23.4486 9.35544 23.2743 9.44744L14.4921 14.0823C14.235 14.218 13.9166 14.1219 13.7775 13.8666L7.48566 2.31883C7.29273 1.96473 7.54904 1.5332 7.95228 1.5332H23.0263C23.3197 1.5332 23.5577 1.77111 23.5577 2.06459V8.97744Z" fill="url(#paint0_linear_788_10909)"/>
<path d="M89.0703 8.70605H93.0527V9.38086H89.0703V23.0137C89.0704 23.6883 89.195 24.1715 89.4424 24.4639C89.6898 24.7338 90.0608 24.8691 90.5557 24.8691C90.9605 24.8691 91.3657 24.7231 91.7705 24.4307C92.1753 24.1158 92.5347 23.5869 92.8496 22.8447L93.4238 23.1484C93.0639 24.1607 92.5128 24.9932 91.7705 25.6455C91.0507 26.2979 90.0605 26.624 88.8008 26.624C88.0585 26.624 87.4061 26.5227 86.8438 26.3203C86.2814 26.1404 85.8092 25.8589 85.4268 25.4766C84.9319 24.9817 84.6057 24.3741 84.4482 23.6543C84.2908 22.912 84.2119 21.9559 84.2119 20.7861V9.38086H78.1641V23.0137C78.1641 23.6883 78.2878 24.1715 78.5352 24.4639C78.7826 24.7338 79.1535 24.8691 79.6484 24.8691C80.0533 24.8691 80.4584 24.7231 80.8633 24.4307C81.2681 24.1158 81.6275 23.5869 81.9424 22.8447L82.5166 23.1484C82.1567 24.1607 81.6056 24.9932 80.8633 25.6455C80.1434 26.2979 79.1533 26.624 77.8936 26.624C77.1513 26.624 76.4989 26.5228 75.9365 26.3203C75.3742 26.1404 74.9019 25.8589 74.5195 25.4766C74.0246 24.9817 73.6985 24.3741 73.541 23.6543C73.3836 22.912 73.3047 21.9559 73.3047 20.7861V9.38086H70.4697V8.70605H73.3047V4.25195C74.2493 4.25195 75.1151 4.17303 75.9023 4.01562C76.7122 3.83566 77.4667 3.5543 78.1641 3.17188V8.70605H84.2119V4.25195C85.1565 4.25195 86.0224 4.17304 86.8096 4.01562C87.6193 3.83568 88.373 3.55425 89.0703 3.17188V8.70605ZM121.531 22.4736C121.531 23.4858 121.689 24.2395 122.004 24.7344C122.319 25.2066 122.882 25.4424 123.691 25.4424V26.1514C122.994 26.0839 122.296 26.0498 121.599 26.0498C120.654 26.0498 119.777 26.0839 118.967 26.1514C118.157 26.2188 117.393 26.3426 116.673 26.5225V23.4854C116.133 24.6101 115.378 25.4201 114.411 25.915C113.466 26.3873 112.409 26.624 111.239 26.624C110.295 26.624 109.53 26.5003 108.945 26.2529C108.36 26.0055 107.899 25.69 107.562 25.3076C107.179 24.8803 106.909 24.3181 106.752 23.6211C106.594 22.9237 106.516 22.0232 106.516 20.9209V12.3838C106.516 11.3717 106.358 10.6296 106.043 10.1572C105.751 9.66244 105.189 9.4151 104.356 9.41504V8.70605C105.076 8.77352 105.773 8.80762 106.448 8.80762C107.393 8.80762 108.27 8.77354 109.08 8.70605C109.912 8.61607 110.678 8.49243 111.375 8.33496V22.3047C111.375 22.8669 111.42 23.3617 111.51 23.7891C111.622 24.2165 111.825 24.5543 112.117 24.8018C112.41 25.0266 112.837 25.1387 113.399 25.1387C114.007 25.1386 114.546 24.9701 115.019 24.6328C115.513 24.2954 115.908 23.8339 116.2 23.249C116.515 22.6418 116.673 21.9668 116.673 21.2246V12.3838C116.673 11.3718 116.515 10.6296 116.2 10.1572C115.908 9.66233 115.345 9.41504 114.513 9.41504V8.70605C115.232 8.77353 115.93 8.8076 116.604 8.80762C117.549 8.80762 118.427 8.77354 119.237 8.70605C120.069 8.61608 120.834 8.49239 121.531 8.33496V22.4736ZM61.9141 8.2334C62.9485 8.23343 63.8818 8.34644 64.7139 8.57129C65.5462 8.77375 66.2443 9.15637 66.8066 9.71875C67.3238 10.236 67.6609 10.877 67.8184 11.6416C67.9758 12.3839 68.0547 13.3293 68.0547 14.4766V23.6543C68.0547 24.2164 68.1113 24.61 68.2236 24.835C68.3361 25.0373 68.5271 25.1386 68.7969 25.1387C68.9993 25.1387 69.1911 25.0832 69.3711 24.9707C69.5735 24.8583 69.7868 24.7228 70.0117 24.5654L70.3496 25.1387C69.8773 25.5435 69.3261 25.859 68.6963 26.084C68.0889 26.2864 67.4025 26.3877 66.6377 26.3877C65.8054 26.3877 65.1414 26.2748 64.6465 26.0498C64.1518 25.8024 63.7923 25.4761 63.5674 25.0713C63.365 24.6664 63.2637 24.1941 63.2637 23.6543C62.7239 24.509 62.0713 25.1838 61.3066 25.6787C60.5419 26.1511 59.608 26.3877 58.5059 26.3877C57.4936 26.3877 56.6495 26.1959 55.9746 25.8135C55.3001 25.4312 54.8051 24.9255 54.4902 24.2959C54.1753 23.6436 54.0176 22.9347 54.0176 22.1699C54.0176 21.2026 54.2318 20.415 54.6592 19.8076C55.1091 19.2003 55.6826 18.7056 56.3799 18.3232C57.0772 17.9408 57.8084 17.6254 58.5732 17.3779C59.3604 17.1306 60.1026 16.8948 60.7998 16.6699C61.5197 16.4225 62.0941 16.1411 62.5215 15.8262C62.9712 15.4888 63.1962 15.0612 63.1963 14.5439V11.9121C63.1963 11.3272 63.095 10.8093 62.8926 10.3594C62.7126 9.88702 62.4195 9.52771 62.0146 9.28027C61.6322 9.03282 61.126 8.9082 60.4961 8.9082C60.0463 8.90824 59.5963 8.97639 59.1465 9.11133C58.6967 9.22382 58.3256 9.42637 58.0332 9.71875C58.663 9.9437 59.147 10.2923 59.4844 10.7646C59.8441 11.2144 60.0244 11.7317 60.0244 12.3164C60.0244 13.0812 59.7538 13.6888 59.2139 14.1387C58.6965 14.5885 58.0782 14.8135 57.3584 14.8135C56.5487 14.8135 55.9303 14.5661 55.5029 14.0713C55.0981 13.554 54.8956 12.9355 54.8955 12.2158C54.8955 11.5635 55.0523 11.0231 55.3672 10.5957C55.7046 10.1683 56.1661 9.76328 56.751 9.38086C57.3808 9.02096 58.1344 8.73956 59.0117 8.53711C59.9115 8.33466 60.8793 8.2334 61.9141 8.2334ZM44.1875 2.93652C43.4227 2.95902 42.8375 3.04859 42.4326 3.20605C42.0504 3.341 41.7922 3.61099 41.6572 4.01562C41.5223 4.39802 41.4541 5.00563 41.4541 5.83789V22.9795C41.4541 23.6765 41.499 24.1938 41.5889 24.5312C41.7013 24.8686 41.9039 25.0945 42.1963 25.207C42.5112 25.3195 42.9727 25.375 43.5801 25.375H45.2334C45.9982 25.375 46.7178 25.1948 47.3926 24.835C48.0673 24.4751 48.675 23.9695 49.2148 23.3174C49.7547 22.6425 50.2045 21.8432 50.5645 20.9209C50.9244 19.9986 51.195 18.9753 51.375 17.8506H52.1504C52.0829 18.6154 52.0498 19.6056 52.0498 20.8203C52.0498 21.3377 52.0605 22.0915 52.083 23.0811C52.1055 24.0708 52.1737 25.0942 52.2861 26.1514C51.1389 26.1064 49.845 26.084 48.4053 26.084C46.9656 26.0615 45.6833 26.0498 44.5586 26.0498H42.3994C41.5221 26.0498 40.5767 26.0615 39.5645 26.084C38.5523 26.084 37.5288 26.0947 36.4941 26.1172C35.4594 26.1172 34.4808 26.1289 33.5586 26.1514V25.4766C34.2781 25.4316 34.8178 25.3419 35.1777 25.207C35.5377 25.0721 35.7742 24.8014 35.8867 24.3965C36.0216 23.9916 36.0889 23.3839 36.0889 22.5742V5.83789C36.0889 5.00563 36.0217 4.39802 35.8867 4.01562C35.7742 3.61091 35.5268 3.34102 35.1445 3.20605C34.7846 3.0486 34.2558 2.95903 33.5586 2.93652V2.26172C34.121 2.28421 34.8746 2.30661 35.8193 2.3291C36.7865 2.35159 37.81 2.3623 38.8896 2.3623C39.8794 2.3623 40.8472 2.3516 41.792 2.3291C42.7592 2.30661 43.5577 2.28421 44.1875 2.26172V2.93652ZM101.103 23.0137C101.103 23.9583 101.26 24.5991 101.575 24.9365C101.913 25.2738 102.475 25.4424 103.262 25.4424V26.1514C102.857 26.1289 102.227 26.1065 101.372 26.084C100.517 26.039 99.6515 26.0166 98.7744 26.0166C97.8971 26.0166 97.0082 26.039 96.1084 26.084C95.2087 26.1065 94.5339 26.1289 94.084 26.1514V25.4424C94.8712 25.4423 95.4224 25.2739 95.7373 24.9365C96.0746 24.5991 96.2431 23.9581 96.2432 23.0137V12.3838C96.2431 11.3717 96.0854 10.6296 95.7705 10.1572C95.4781 9.66245 94.9161 9.41509 94.084 9.41504V8.70605C94.8037 8.77353 95.501 8.80762 96.1758 8.80762C97.1205 8.80762 97.9978 8.77353 98.8076 8.70605C99.6399 8.61607 100.405 8.49243 101.103 8.33496V23.0137ZM147.596 8.2334C148.54 8.2334 149.306 8.35708 149.891 8.60449C150.475 8.82943 150.948 9.14492 151.308 9.5498C151.668 9.97722 151.927 10.5399 152.084 11.2373C152.241 11.9121 152.32 12.812 152.32 13.9365V23.0137C152.32 23.9583 152.478 24.5991 152.793 24.9365C153.13 25.2738 153.692 25.4424 154.479 25.4424V26.1514C154.052 26.1289 153.411 26.1065 152.557 26.084C151.702 26.039 150.858 26.0166 150.025 26.0166C149.216 26.0166 148.417 26.039 147.63 26.084C146.843 26.1065 146.247 26.1289 145.842 26.1514V25.4424C146.449 25.4423 146.865 25.2739 147.09 24.9365C147.337 24.5991 147.461 23.9582 147.461 23.0137V12.5195C147.461 11.9572 147.404 11.4733 147.292 11.0684C147.202 10.641 147.011 10.3148 146.719 10.0898C146.449 9.8424 146.021 9.71875 145.437 9.71875C144.852 9.71875 144.311 9.89886 143.816 10.2588C143.322 10.6186 142.917 11.102 142.603 11.709C142.361 12.2112 142.212 12.76 142.154 13.3545C142.159 13.5413 142.163 13.7354 142.163 13.9365V23.0137C142.163 23.9583 142.31 24.5991 142.603 24.9365C142.895 25.2738 143.401 25.4423 144.12 25.4424V26.1514C143.715 26.1289 143.097 26.1065 142.265 26.084C141.455 26.039 140.656 26.0166 139.869 26.0166C139.059 26.0166 138.26 26.039 137.473 26.084C136.686 26.1065 136.089 26.1289 135.685 26.1514V25.4424C136.292 25.4424 136.709 25.274 136.934 24.9365C137.181 24.5991 137.305 23.958 137.305 23.0137V12.5195C137.305 11.9573 137.26 11.4732 137.17 11.0684C137.08 10.6411 136.9 10.3148 136.63 10.0898C136.382 9.84241 136 9.71877 135.482 9.71875C134.898 9.71875 134.357 9.88718 133.862 10.2246C133.368 10.562 132.962 11.0343 132.647 11.6416C132.355 12.2265 132.209 12.8905 132.209 13.6328V23.0137C132.209 23.9581 132.333 24.5991 132.58 24.9365C132.828 25.274 133.244 25.4424 133.829 25.4424V26.1514C133.469 26.1289 132.906 26.1065 132.142 26.084C131.399 26.039 130.635 26.0166 129.848 26.0166C128.993 26.0166 128.115 26.039 127.215 26.084C126.315 26.1065 125.64 26.1289 125.19 26.1514V25.4424C125.978 25.4424 126.529 25.2739 126.844 24.9365C127.181 24.5991 127.351 23.9583 127.351 23.0137V12.3838C127.351 11.3718 127.193 10.6296 126.878 10.1572C126.585 9.66233 126.023 9.41504 125.19 9.41504V8.70605C125.91 8.77354 126.608 8.80762 127.283 8.80762C128.228 8.80761 129.105 8.77353 129.915 8.70605C130.747 8.61609 131.512 8.49238 132.209 8.33496V11.3721C132.749 10.2474 133.48 9.44899 134.402 8.97656C135.325 8.48166 136.337 8.2334 137.439 8.2334C138.384 8.2334 139.15 8.35705 139.734 8.60449C140.319 8.82944 140.791 9.14494 141.151 9.5498C141.511 9.9772 141.769 10.54 141.927 11.2373C141.953 11.3504 141.976 11.47 141.998 11.5957C142.601 10.2901 143.386 9.40541 144.356 8.94238C145.369 8.47003 146.449 8.23345 147.596 8.2334ZM63.1963 15.9268C62.9939 16.2641 62.7123 16.568 62.3525 16.8379C61.9926 17.1078 61.61 17.3892 61.2051 17.6816C60.8003 17.9515 60.4067 18.2554 60.0244 18.5928C59.6645 18.9302 59.3714 19.3469 59.1465 19.8418C58.9217 20.3366 58.8096 20.9327 58.8096 21.6299C58.8096 22.5071 59.0004 23.1595 59.3828 23.5869C59.7652 24.0143 60.2715 24.2275 60.9014 24.2275C61.3512 24.2275 61.7563 24.1272 62.1162 23.9248C62.4986 23.6999 62.8589 23.3396 63.1963 22.8447V15.9268ZM98.4707 0C99.4153 5.94202e-05 100.157 0.236708 100.697 0.708984C101.26 1.15888 101.541 1.78883 101.541 2.59863C101.541 3.40847 101.26 4.05006 100.697 4.52246C100.157 4.97216 99.4152 5.19721 98.4707 5.19727C97.5261 5.19727 96.7723 4.97213 96.21 4.52246C95.6701 4.05006 95.3994 3.40847 95.3994 2.59863C95.3994 1.78883 95.6701 1.15888 96.21 0.708984C96.7723 0.236738 97.5261 0 98.4707 0Z" fill="#030230"/>
</g>
<defs>
<linearGradient id="paint0_linear_788_10909" x1="-1.67638" y1="1.45565" x2="20.2951" y2="25.1016" gradientUnits="userSpaceOnUse">
<stop stop-color="#ACF459"/>
<stop offset="0.447115" stop-color="#62CCAF"/>
</linearGradient>
<clipPath id="clip0_788_10909">
<rect width="155" height="27" fill="white"/>
</clipPath>
</defs>
</svg>
