<svg width="696" height="900" viewBox="0 0 696 900" fill="none" xmlns="http://www.w3.org/2000/svg">
<g clip-path="url(#clip0_1949_2680)">
<rect width="696" height="900" fill="url(#paint0_linear_1949_2680)"/>
<path d="M850 958.5L806.555 817.534C804.971 812.396 798.427 810.887 794.754 814.813L731.385 882.539C727.681 886.497 721.077 884.924 719.555 879.721L588.037 430.061C586.049 423.262 576.376 423.38 574.554 430.226L434 958.5" stroke="url(#paint1_linear_1949_2680)" stroke-width="44"/>
<path d="M568 826C568 837.046 576.954 846 588 846H592C603.046 846 612 837.046 612 826V682H568V826Z" fill="url(#paint2_linear_1949_2680)" fill-opacity="0.36"/>
<path d="M515 353C526.046 353 535 344.046 535 333L535 329C535 317.954 526.046 309 515 309L371 309L371 353L515 353Z" fill="url(#paint3_linear_1949_2680)" fill-opacity="0.36"/>
<path d="M134 561C122.954 561 114 569.954 114 581L114 585C114 596.046 122.954 605 134 605L278 605L278 561L134 561Z" fill="url(#paint4_linear_1949_2680)" fill-opacity="0.36"/>
<path d="M114 90C114 78.9543 105.046 70 94 70L90 70C78.9543 70 70 78.9543 70 90L70 234L114 234L114 90Z" fill="url(#paint5_linear_1949_2680)" fill-opacity="0.36"/>
<path d="M92 786C92 797.046 100.954 806 112 806L116 806C127.046 806 136 797.046 136 786L136 642L92 642L92 786Z" fill="url(#paint6_linear_1949_2680)" fill-opacity="0.36"/>
<path d="M546 172C546 160.954 554.954 152 566 152L570 152C581.046 152 590 160.954 590 172L590 316L546 316L546 172Z" fill="url(#paint7_linear_1949_2680)" fill-opacity="0.36"/>
<path d="M346 -28L302.555 112.966C300.971 118.104 294.427 119.613 290.754 115.687L227.385 47.9613C223.681 44.0027 217.077 45.5756 215.555 50.7789L84.0374 500.439C82.0488 507.238 72.3757 507.12 70.5543 500.274L-70 -28" stroke="url(#paint8_linear_1949_2680)" stroke-width="44"/>
<path d="M160.046 432.706H151.071L149.585 437H144.839L152.943 414.432H158.206L166.309 437H161.531L160.046 432.706ZM158.819 429.09L155.558 419.663L152.297 429.09H158.819ZM196.306 437H191.786L181.552 421.535V437H177.032V414.432H181.552L191.786 429.929V414.432H196.306V437ZM217.4 427.669C217.4 428.315 217.357 428.896 217.271 429.413H204.195C204.303 430.704 204.755 431.716 205.551 432.448C206.348 433.18 207.327 433.545 208.489 433.545C210.168 433.545 211.363 432.824 212.073 431.382H216.948C216.431 433.104 215.441 434.525 213.978 435.644C212.514 436.742 210.717 437.291 208.586 437.291C206.864 437.291 205.314 436.914 203.937 436.161C202.581 435.386 201.515 434.299 200.741 432.9C199.987 431.501 199.611 429.886 199.611 428.057C199.611 426.206 199.987 424.581 200.741 423.182C201.494 421.783 202.549 420.706 203.905 419.953C205.261 419.2 206.821 418.823 208.586 418.823C210.286 418.823 211.804 419.189 213.138 419.921C214.494 420.653 215.538 421.697 216.27 423.053C217.023 424.387 217.4 425.926 217.4 427.669ZM212.719 426.378C212.697 425.216 212.277 424.29 211.459 423.601C210.642 422.891 209.641 422.536 208.457 422.536C207.338 422.536 206.391 422.88 205.616 423.569C204.862 424.236 204.4 425.173 204.227 426.378H212.719ZM245.495 419.114L240.264 437H235.389L232.128 424.505L228.868 437H223.96L218.698 419.114H223.282L226.446 432.738L229.868 419.114H234.647L238.004 432.706L241.168 419.114H245.495ZM269.549 414.465V418.113H260.153V423.892H267.353V427.476H260.153V437H255.633V414.465H269.549ZM277.274 421.89C277.855 420.943 278.608 420.201 279.534 419.663C280.481 419.124 281.557 418.855 282.762 418.855V423.601H281.568C280.147 423.601 279.071 423.935 278.339 424.602C277.629 425.27 277.274 426.432 277.274 428.089V437H272.754V419.114H277.274V421.89ZM293.749 437.291C292.027 437.291 290.477 436.914 289.1 436.161C287.722 435.386 286.635 434.299 285.839 432.9C285.064 431.501 284.677 429.886 284.677 428.057C284.677 426.227 285.075 424.613 285.871 423.214C286.689 421.815 287.798 420.739 289.197 419.985C290.596 419.211 292.156 418.823 293.878 418.823C295.6 418.823 297.16 419.211 298.56 419.985C299.959 420.739 301.056 421.815 301.853 423.214C302.671 424.613 303.08 426.227 303.08 428.057C303.08 429.886 302.66 431.501 301.82 432.9C301.002 434.299 299.883 435.386 298.463 436.161C297.064 436.914 295.492 437.291 293.749 437.291ZM293.749 433.352C294.567 433.352 295.331 433.158 296.041 432.771C296.773 432.362 297.354 431.759 297.785 430.963C298.215 430.166 298.43 429.198 298.43 428.057C298.43 426.356 297.978 425.054 297.074 424.15C296.192 423.225 295.105 422.762 293.814 422.762C292.522 422.762 291.435 423.225 290.553 424.15C289.692 425.054 289.261 426.356 289.261 428.057C289.261 429.757 289.681 431.07 290.52 431.996C291.381 432.9 292.458 433.352 293.749 433.352ZM316.307 418.855C318.438 418.855 320.16 419.533 321.473 420.889C322.785 422.224 323.442 424.096 323.442 426.507V437H318.922V427.121C318.922 425.7 318.567 424.613 317.857 423.86C317.146 423.085 316.178 422.697 314.951 422.697C313.702 422.697 312.712 423.085 311.981 423.86C311.27 424.613 310.915 425.7 310.915 427.121V437H306.395V419.114H310.915V421.341C311.518 420.567 312.282 419.964 313.207 419.533C314.154 419.081 315.188 418.855 316.307 418.855ZM333.003 422.827V431.479C333.003 432.082 333.143 432.523 333.423 432.803C333.724 433.061 334.219 433.19 334.908 433.19H337.006V437H334.165C330.355 437 328.451 435.149 328.451 431.447V422.827H326.32V419.114H328.451V414.691H333.003V419.114H337.006V422.827H333.003ZM342.55 416.983C341.753 416.983 341.086 416.735 340.548 416.24C340.031 415.724 339.773 415.089 339.773 414.335C339.773 413.582 340.031 412.958 340.548 412.463C341.086 411.946 341.753 411.688 342.55 411.688C343.346 411.688 344.002 411.946 344.519 412.463C345.057 412.958 345.326 413.582 345.326 414.335C345.326 415.089 345.057 415.724 344.519 416.24C344.002 416.735 343.346 416.983 342.55 416.983ZM344.777 419.114V437H340.257V419.114H344.777ZM365.87 427.669C365.87 428.315 365.827 428.896 365.741 429.413H352.665C352.773 430.704 353.225 431.716 354.021 432.448C354.818 433.18 355.797 433.545 356.959 433.545C358.638 433.545 359.833 432.824 360.543 431.382H365.418C364.902 433.104 363.912 434.525 362.448 435.644C360.984 436.742 359.187 437.291 357.056 437.291C355.334 437.291 353.785 436.914 352.407 436.161C351.051 435.386 349.986 434.299 349.211 432.9C348.457 431.501 348.081 429.886 348.081 428.057C348.081 426.206 348.457 424.581 349.211 423.182C349.964 421.783 351.019 420.706 352.375 419.953C353.731 419.2 355.291 418.823 357.056 418.823C358.757 418.823 360.274 419.189 361.608 419.921C362.964 420.653 364.008 421.697 364.74 423.053C365.494 424.387 365.87 425.926 365.87 427.669ZM361.189 426.378C361.167 425.216 360.748 424.29 359.93 423.601C359.112 422.891 358.111 422.536 356.927 422.536C355.808 422.536 354.861 422.88 354.086 423.569C353.333 424.236 352.87 425.173 352.698 426.378H361.189ZM373.689 421.89C374.271 420.943 375.024 420.201 375.949 419.663C376.896 419.124 377.973 418.855 379.178 418.855V423.601H377.983C376.563 423.601 375.487 423.935 374.755 424.602C374.045 425.27 373.689 426.432 373.689 428.089V437H369.169V419.114H373.689V421.89ZM398.116 422.827H394.984V437H390.4V422.827H388.366V419.114H390.4V418.21C390.4 416.014 391.024 414.4 392.272 413.367C393.521 412.334 395.404 411.849 397.922 411.914V415.724C396.825 415.702 396.061 415.885 395.63 416.273C395.2 416.66 394.984 417.36 394.984 418.371V419.114H398.116V422.827ZM408.988 437.291C407.266 437.291 405.716 436.914 404.338 436.161C402.961 435.386 401.874 434.299 401.078 432.9C400.303 431.501 399.915 429.886 399.915 428.057C399.915 426.227 400.313 424.613 401.11 423.214C401.928 421.815 403.036 420.739 404.435 419.985C405.834 419.211 407.395 418.823 409.117 418.823C410.839 418.823 412.399 419.211 413.798 419.985C415.197 420.739 416.295 421.815 417.091 423.214C417.909 424.613 418.318 426.227 418.318 428.057C418.318 429.886 417.898 431.501 417.059 432.9C416.241 434.299 415.122 435.386 413.701 436.161C412.302 436.914 410.731 437.291 408.988 437.291ZM408.988 433.352C409.805 433.352 410.57 433.158 411.28 432.771C412.012 432.362 412.593 431.759 413.023 430.963C413.454 430.166 413.669 429.198 413.669 428.057C413.669 426.356 413.217 425.054 412.313 424.15C411.43 423.225 410.344 422.762 409.052 422.762C407.761 422.762 406.674 423.225 405.791 424.15C404.93 425.054 404.5 426.356 404.5 428.057C404.5 429.757 404.92 431.07 405.759 431.996C406.62 432.9 407.696 433.352 408.988 433.352ZM426.154 421.89C426.735 420.943 427.488 420.201 428.414 419.663C429.361 419.124 430.437 418.855 431.642 418.855V423.601H430.448C429.027 423.601 427.951 423.935 427.219 424.602C426.509 425.27 426.154 426.432 426.154 428.089V437H421.634V419.114H426.154V421.89Z" fill="white"/>
<path d="M170.988 460.496V467.62H156.116V475.316H167.244V482.232H156.116V497H147.224V460.496H170.988ZM188.87 497.416C186.027 497.416 183.462 496.809 181.174 495.596C178.92 494.383 177.135 492.649 175.818 490.396C174.535 488.143 173.894 485.508 173.894 482.492C173.894 479.511 174.552 476.893 175.869 474.64C177.187 472.352 178.99 470.601 181.278 469.388C183.566 468.175 186.131 467.568 188.974 467.568C191.816 467.568 194.382 468.175 196.67 469.388C198.958 470.601 200.76 472.352 202.078 474.64C203.395 476.893 204.054 479.511 204.054 482.492C204.054 485.473 203.378 488.108 202.026 490.396C200.708 492.649 198.888 494.383 196.566 495.596C194.278 496.809 191.712 497.416 188.87 497.416ZM188.87 489.72C190.568 489.72 192.007 489.096 193.186 487.848C194.399 486.6 195.006 484.815 195.006 482.492C195.006 480.169 194.416 478.384 193.238 477.136C192.094 475.888 190.672 475.264 188.974 475.264C187.24 475.264 185.802 475.888 184.658 477.136C183.514 478.349 182.942 480.135 182.942 482.492C182.942 484.815 183.496 486.6 184.606 487.848C185.75 489.096 187.171 489.72 188.87 489.72ZM217.663 472.82C218.703 471.225 220.003 469.977 221.563 469.076C223.123 468.14 224.856 467.672 226.763 467.672V477.084H224.319C222.1 477.084 220.436 477.569 219.327 478.54C218.218 479.476 217.663 481.14 217.663 483.532V497H208.771V467.984H217.663V472.82ZM258.365 482.024C258.365 482.856 258.313 483.723 258.209 484.624H238.085C238.224 486.427 238.796 487.813 239.801 488.784C240.841 489.72 242.106 490.188 243.597 490.188C245.816 490.188 247.358 489.252 248.225 487.38H257.689C257.204 489.287 256.32 491.003 255.037 492.528C253.789 494.053 252.212 495.249 250.305 496.116C248.398 496.983 246.266 497.416 243.909 497.416C241.066 497.416 238.536 496.809 236.317 495.596C234.098 494.383 232.365 492.649 231.117 490.396C229.869 488.143 229.245 485.508 229.245 482.492C229.245 479.476 229.852 476.841 231.065 474.588C232.313 472.335 234.046 470.601 236.265 469.388C238.484 468.175 241.032 467.568 243.909 467.568C246.717 467.568 249.213 468.157 251.397 469.336C253.581 470.515 255.28 472.196 256.493 474.38C257.741 476.564 258.365 479.112 258.365 482.024ZM249.265 479.684C249.265 478.159 248.745 476.945 247.705 476.044C246.665 475.143 245.365 474.692 243.805 474.692C242.314 474.692 241.049 475.125 240.009 475.992C239.004 476.859 238.38 478.089 238.137 479.684H249.265ZM280.216 497L274.652 488.94L269.972 497H260.352L269.92 482.18L260.092 467.984H270.076L275.64 475.992L280.32 467.984H289.94L280.216 482.596L290.2 497H280.216ZM330.906 460.496V467.62H321.234V497H312.342V467.62H302.67V460.496H330.906ZM344.261 472.82C345.301 471.225 346.601 469.977 348.161 469.076C349.721 468.14 351.454 467.672 353.361 467.672V477.084H350.917C348.698 477.084 347.034 477.569 345.925 478.54C344.815 479.476 344.261 481.14 344.261 483.532V497H335.369V467.984H344.261V472.82ZM355.843 482.44C355.843 479.459 356.397 476.841 357.507 474.588C358.651 472.335 360.193 470.601 362.135 469.388C364.076 468.175 366.243 467.568 368.635 467.568C370.68 467.568 372.465 467.984 373.991 468.816C375.551 469.648 376.747 470.74 377.579 472.092V467.984H386.471V497H377.579V492.892C376.712 494.244 375.499 495.336 373.939 496.168C372.413 497 370.628 497.416 368.583 497.416C366.225 497.416 364.076 496.809 362.135 495.596C360.193 494.348 358.651 492.597 357.507 490.344C356.397 488.056 355.843 485.421 355.843 482.44ZM377.579 482.492C377.579 480.273 376.955 478.523 375.707 477.24C374.493 475.957 373.003 475.316 371.235 475.316C369.467 475.316 367.959 475.957 366.711 477.24C365.497 478.488 364.891 480.221 364.891 482.44C364.891 484.659 365.497 486.427 366.711 487.744C367.959 489.027 369.467 489.668 371.235 489.668C373.003 489.668 374.493 489.027 375.707 487.744C376.955 486.461 377.579 484.711 377.579 482.492ZM391.136 482.44C391.136 479.459 391.69 476.841 392.8 474.588C393.944 472.335 395.486 470.601 397.428 469.388C399.369 468.175 401.536 467.568 403.928 467.568C405.834 467.568 407.568 467.967 409.128 468.764C410.722 469.561 411.97 470.636 412.872 471.988V458.52H421.764V497H412.872V492.84C412.04 494.227 410.844 495.336 409.284 496.168C407.758 497 405.973 497.416 403.928 497.416C401.536 497.416 399.369 496.809 397.428 495.596C395.486 494.348 393.944 492.597 392.8 490.344C391.69 488.056 391.136 485.421 391.136 482.44ZM412.872 482.492C412.872 480.273 412.248 478.523 411 477.24C409.786 475.957 408.296 475.316 406.528 475.316C404.76 475.316 403.252 475.957 402.004 477.24C400.79 478.488 400.184 480.221 400.184 482.44C400.184 484.659 400.79 486.427 402.004 487.744C403.252 489.027 404.76 489.668 406.528 489.668C408.296 489.668 409.786 489.027 411 487.744C412.248 486.461 412.872 484.711 412.872 482.492ZM432.669 464.968C431.109 464.968 429.826 464.517 428.821 463.616C427.85 462.68 427.365 461.536 427.365 460.184C427.365 458.797 427.85 457.653 428.821 456.752C429.826 455.816 431.109 455.348 432.669 455.348C434.194 455.348 435.442 455.816 436.413 456.752C437.418 457.653 437.921 458.797 437.921 460.184C437.921 461.536 437.418 462.68 436.413 463.616C435.442 464.517 434.194 464.968 432.669 464.968ZM437.089 467.984V497H428.197V467.984H437.089ZM461.213 467.672C464.61 467.672 467.314 468.781 469.325 471C471.37 473.184 472.393 476.2 472.393 480.048V497H463.553V481.244C463.553 479.303 463.05 477.795 462.045 476.72C461.039 475.645 459.687 475.108 457.989 475.108C456.29 475.108 454.938 475.645 453.933 476.72C452.927 477.795 452.425 479.303 452.425 481.244V497H443.533V467.984H452.425V471.832C453.326 470.549 454.539 469.544 456.065 468.816C457.59 468.053 459.306 467.672 461.213 467.672ZM489.596 467.568C491.641 467.568 493.426 467.984 494.952 468.816C496.512 469.648 497.708 470.74 498.54 472.092V467.984H507.432V496.948C507.432 499.617 506.894 502.027 505.82 504.176C504.78 506.36 503.168 508.093 500.984 509.376C498.834 510.659 496.148 511.3 492.924 511.3C488.625 511.3 485.141 510.277 482.472 508.232C479.802 506.221 478.277 503.483 477.896 500.016H486.684C486.961 501.125 487.62 501.992 488.66 502.616C489.7 503.275 490.982 503.604 492.508 503.604C494.345 503.604 495.801 503.067 496.876 501.992C497.985 500.952 498.54 499.271 498.54 496.948V492.84C497.673 494.192 496.477 495.301 494.952 496.168C493.426 497 491.641 497.416 489.596 497.416C487.204 497.416 485.037 496.809 483.096 495.596C481.154 494.348 479.612 492.597 478.468 490.344C477.358 488.056 476.804 485.421 476.804 482.44C476.804 479.459 477.358 476.841 478.468 474.588C479.612 472.335 481.154 470.601 483.096 469.388C485.037 468.175 487.204 467.568 489.596 467.568ZM498.54 482.492C498.54 480.273 497.916 478.523 496.668 477.24C495.454 475.957 493.964 475.316 492.196 475.316C490.428 475.316 488.92 475.957 487.672 477.24C486.458 478.488 485.852 480.221 485.852 482.44C485.852 484.659 486.458 486.427 487.672 487.744C488.92 489.027 490.428 489.668 492.196 489.668C493.964 489.668 495.454 489.027 496.668 487.744C497.916 486.461 498.54 484.711 498.54 482.492Z" fill="white"/>
</g>
<defs>
<linearGradient id="paint0_linear_1949_2680" x1="348" y1="0" x2="348" y2="900" gradientUnits="userSpaceOnUse">
<stop stop-color="#07122A"/>
<stop offset="1" stop-color="#123FA2"/>
</linearGradient>
<linearGradient id="paint1_linear_1949_2680" x1="642" y1="958.5" x2="642" y2="406" gradientUnits="userSpaceOnUse">
<stop offset="0.399038" stop-color="#244591"/>
<stop offset="1" stop-color="#0E2D75"/>
</linearGradient>
<linearGradient id="paint2_linear_1949_2680" x1="590" y1="846" x2="590" y2="682" gradientUnits="userSpaceOnUse">
<stop stop-color="white"/>
<stop offset="1" stop-color="#868686" stop-opacity="0"/>
</linearGradient>
<linearGradient id="paint3_linear_1949_2680" x1="535" y1="331" x2="371" y2="331" gradientUnits="userSpaceOnUse">
<stop stop-color="white"/>
<stop offset="1" stop-color="#868686" stop-opacity="0"/>
</linearGradient>
<linearGradient id="paint4_linear_1949_2680" x1="114" y1="583" x2="278" y2="583" gradientUnits="userSpaceOnUse">
<stop stop-color="white"/>
<stop offset="1" stop-color="#868686" stop-opacity="0"/>
</linearGradient>
<linearGradient id="paint5_linear_1949_2680" x1="92" y1="70" x2="92" y2="234" gradientUnits="userSpaceOnUse">
<stop stop-color="white"/>
<stop offset="1" stop-color="#868686" stop-opacity="0"/>
</linearGradient>
<linearGradient id="paint6_linear_1949_2680" x1="114" y1="806" x2="114" y2="642" gradientUnits="userSpaceOnUse">
<stop stop-color="white"/>
<stop offset="1" stop-color="#868686" stop-opacity="0"/>
</linearGradient>
<linearGradient id="paint7_linear_1949_2680" x1="568" y1="152" x2="568" y2="316" gradientUnits="userSpaceOnUse">
<stop stop-color="white"/>
<stop offset="1" stop-color="#868686" stop-opacity="0"/>
</linearGradient>
<linearGradient id="paint8_linear_1949_2680" x1="138" y1="-28" x2="138" y2="524.5" gradientUnits="userSpaceOnUse">
<stop offset="0.399038" stop-color="#244591"/>
<stop offset="1" stop-color="#0E2D75"/>
</linearGradient>
<clipPath id="clip0_1949_2680">
<rect width="696" height="900" fill="white"/>
</clipPath>
</defs>
</svg>
